Patient4_TMGait_0pt7_01_right_31_GRF.mot
version=1
nRows=45
nColumns=19
inDegrees=no
endheader
time	F1x	F1y	F1z	M1x	M1y	M1z	F2x	F2y	F2z	M2x	M2y	M2z	EC1x	EC1y	EC1z	EC2x	EC2y	EC2z
35.22	-36.7309	733.4861	88.3493	-266.508	-96.8441	758.3502	-14.6043	-4.3245	-26.9466	7.3312	17.224	7.5703	-0.0592	0.0182	-0.0073	-0.0462	0.0165	0.9585
35.2316	-25.7101	725.1796	83.2093	-264.5609	-89.4596	747.3418	-10.0895	-1.2544	-18.3224	5.5751	11.8972	7.1209	-0.0592	0.0182	-0.0073	-0.0462	0.0165	0.9585
35.2431	-15.2512	717.7339	78.2555	-262.9338	-82.0702	736.1142	-6.2378	1.3944	-10.9281	4.0715	7.3197	6.7583	-0.0592	0.0182	-0.0073	-0.0462	0.0165	0.9585
35.2547	-5.84	711.8095	73.7601	-261.8261	-75.0328	725.4543	-3.2348	3.4522	-5.2382	2.9206	3.7775	6.4822	-0.0592	0.0182	-0.0073	-0.0462	0.0165	0.9585
35.2663	2.3141	707.7766	69.9298	-261.3422	-68.6349	716.0142	-1.1678	4.937	-1.2669	2.133	1.2969	6.3635	-0.0592	0.0182	-0.0073	-0.0462	0.0165	0.9585
35.2779	9.1993	705.7655	66.7934	-261.5132	-62.984	708.1824	0.1449	5.9002	1.2173	1.656	-0.27508	6.3214	-0.0592	0.0182	-0.0073	-0.0462	0.0165	0.9585
35.2894	14.8844	705.7061	64.3983	-262.3004	-58.1929	702.1654	0.81498	6.4549	2.5532	1.4149	-1.1279	6.3588	-0.0592	0.0182	-0.0073	-0.0462	0.0165	0.9585
35.301	19.5306	707.4405	62.6504	-263.6373	-54.2143	697.9934	1.0641	6.6299	3.0796	1.3092	-1.4775	6.3239	-0.0592	0.0182	-0.0073	-0.0462	0.0165	0.9585
35.3126	23.2832	710.7261	61.5188	-265.4249	-51.0477	695.5802	0.98881	6.4961	3.1001	1.2581	-1.4999	6.186	-0.0592	0.0182	-0.0073	-0.0462	0.0165	0.9585
35.3241	26.3137	715.2673	60.9213	-267.5455	-48.6169	694.7073	0.77221	5.9894	2.842	1.1659	-1.3509	5.7266	-0.0592	0.0182	-0.0073	-0.0462	0.0165	0.9585
35.3357	28.7439	720.7134	60.8496	-269.8504	-46.9044	695.0801	0.45627	5.0893	2.478	0.96347	-1.1311	4.8576	-0.0592	0.0182	-0.0073	-0.0462	0.0165	0.9585
35.3473	30.6806	726.6164	61.288	-272.1677	-45.8749	696.2654	0.17219	3.6639	2.1133	0.57124	-0.92159	3.3499	-0.0592	0.0182	-0.0073	-0.0462	0.0165	0.9585
35.3589	32.2377	732.5079	62.2146	-274.3246	-45.4771	697.7953	-0.067459	1.6507	1.8231	-0.056956	-0.76953	1.1344	-0.0592	0.0182	-0.0073	-0.0462	0.0165	0.9585
35.3704	33.5278	737.852	63.5989	-276.1401	-45.6476	699.1099	-0.14439	-1.018	1.6327	-0.94747	-0.72156	-1.9114	-0.0592	0.0182	-0.0073	-0.0462	0.0165	0.9585
35.382	34.6763	742.164	65.3379	-277.4588	-46.2445	699.677	-0.034371	-4.1929	1.5567	-2.0483	-0.8096	-5.5928	-0.0592	0.0182	-0.0073	-0.0462	0.0165	0.9585
35.3936	35.8151	745.0363	67.3317	-278.1593	-47.1276	699.0398	0.38406	-7.5599	1.5841	-3.2325	-1.0716	-9.552	-0.0592	0.0182	-0.0073	-0.0462	0.0165	0.9585
35.4051	37.0685	746.1979	69.3971	-278.1759	-48.0817	696.8543	1.1439	-10.3535	1.7111	-4.2208	-1.5295	-12.8415	-0.0592	0.0182	-0.0073	-0.0462	0.0165	0.9585
35.4167	38.5242	745.5163	71.3848	-277.4907	-48.935	692.9303	2.3511	-11.4051	1.9192	-4.5781	-2.2045	-14.0716	-0.0592	0.0182	-0.0073	-0.0462	0.0165	0.9585
35.4283	40.2391	742.9241	73.1275	-276.1063	-49.5074	687.1567	3.9904	-8.8975	2.1802	-3.6457	-3.0673	-11.0414	-0.0592	0.0182	-0.0073	-0.0462	0.0165	0.9585
35.4399	42.2163	738.2983	74.5006	-273.9972	-49.6755	679.3998	6.0423	-0.45523	2.4405	-0.55663	-4.0394	-0.92954	-0.0592	0.0182	-0.0073	-0.0462	0.0165	0.9585
35.4514	44.4616	731.3229	75.4057	-271.056	-49.3427	669.3846	8.2424	16.8306	2.6125	5.7436	-4.9216	19.7681	-0.0592	0.0182	-0.0073	-0.0462	0.0165	0.9585
35.463	46.947	721.3636	75.7436	-267.052	-48.426	656.5989	10.1994	46.011	2.5664	16.3624	-5.4002	54.6715	-0.0592	0.0182	-0.0073	-0.0462	0.0165	0.9585
35.4746	49.609	707.4212	75.4244	-261.6186	-46.8727	640.2502	11.1229	89.6667	2.1212	32.2285	-4.9693	106.8856	-0.0592	0.0182	-0.0073	-0.0462	0.0165	0.9585
35.4861	52.2804	688.1687	74.2803	-254.2772	-44.6063	619.3015	9.9521	148.7661	1.0452	53.6836	-2.9581	177.5509	-0.0592	0.0182	-0.0073	-0.0462	0.0165	0.9585
35.4977	54.6778	662.1227	72.1191	-244.5012	-41.5865	592.5911	5.2106	221.3097	-0.91454	79.9832	1.4348	264.2699	-0.0592	0.0182	-0.0073	-0.0462	0.0165	0.9585
35.5093	56.3722	627.9673	68.7319	-231.8246	-37.8117	559.1259	-3.9567	301.1265	-3.9271	108.8617	8.6843	359.5989	-0.0592	0.0182	-0.0073	-0.0462	0.0165	0.9585
35.5209	56.8784	584.8918	64.0104	-215.9643	-33.391	518.3392	-16.2833	378.5864	-8.6715	136.7645	19.0453	451.8686	-0.0592	0.0182	-0.0073	-0.0462	0.0165	0.9585
35.5324	55.717	532.9825	58.0676	-196.9457	-28.6173	470.407	-29.2916	445.8587	-15.8943	160.806	32.3144	531.3721	-0.0592	0.0182	-0.0073	-0.0462	0.0165	0.9585
35.544	52.5669	473.47	51.1918	-175.1763	-23.8609	416.4643	-41.263	502.0475	-24.575	180.641	46.7488	596.7054	-0.0592	0.0182	-0.0073	-0.0462	0.0165	0.9585
35.5556	47.3842	408.4203	43.9069	-151.3585	-19.5816	358.3141	-51.031	550.1191	-33.9856	197.3656	61.0583	651.2663	-0.0592	0.0182	-0.0073	-0.0462	0.0165	0.9585
35.5671	40.3765	340.6268	36.6892	-126.4656	-16.0906	298.3277	-58.0813	593.5342	-42.9089	212.2889	73.7038	699.2473	-0.0592	0.0182	-0.0073	-0.0462	0.0165	0.9585
35.5787	31.9922	273.3431	29.8959	-101.6705	-13.5031	239.2278	-62.3404	634.1307	-50.7047	226.1135	83.9324	742.9854	-0.0592	0.0182	-0.0073	-0.0462	0.0165	0.9585
35.5903	22.9902	209.9994	23.7742	-78.2352	-11.7287	183.8524	-64.2216	672.0443	-57.0837	238.9012	91.5779	782.8646	-0.0592	0.0182	-0.0073	-0.0462	0.0165	0.9585
35.6019	14.3697	153.4985	18.4362	-57.2578	-10.4758	134.5799	-64.2072	706.4959	-62.1522	250.3459	96.9744	818.1741	-0.0592	0.0182	-0.0073	-0.0462	0.0165	0.9585
35.6134	7.0818	105.6998	13.9239	-39.4624	-9.4186	92.9186	-62.8768	736.5521	-66.3384	260.0691	100.8133	848.0996	-0.0592	0.0182	-0.0073	-0.0462	0.0165	0.9585
35.625	1.668	67.3488	10.1302	-25.1583	-8.2486	59.4454	-60.6639	761.4037	-69.7809	267.7629	103.4622	871.9055	-0.0592	0.0182	-0.0073	-0.0462	0.0165	0.9585
35.6366	-1.7649	38.2525	6.9779	-14.2986	-6.8555	33.9869	-58.0238	780.5188	-72.8642	273.2218	105.4924	889.1994	-0.0592	0.0182	-0.0073	-0.0462	0.0165	0.9585
35.6481	-3.4379	17.6551	4.3896	-6.6091	-5.2561	15.9074	-55.2709	793.6506	-75.4674	276.3892	106.9286	899.8002	-0.0592	0.0182	-0.0073	-0.0462	0.0165	0.9585
35.6597	-3.8074	4.3411	2.378	-1.6403	-3.6397	4.1732	-52.6102	800.916	-77.6911	277.3472	107.935	903.9516	-0.0592	0.0182	-0.0073	-0.0462	0.0165	0.9585
35.6713	-3.4341	-3.1707	0.97715	1.1671	-2.2543	-2.4668	-49.9876	802.7968	-79.2301	276.3422	108.1957	902.1999	-0.0592	0.0182	-0.0073	-0.0462	0.0165	0.9585
35.6829	-2.7032	-6.5136	0.10175	2.42	-1.1819	-5.4351	-47.379	800.0145	-80.0273	273.6977	107.63	895.3799	-0.0592	0.0182	-0.0073	-0.0462	0.0165	0.9585
35.6944	-1.8912	-7.1361	-0.37304	2.6601	-0.42609	-5.9774	-44.6828	793.4736	-79.9647	269.7986	106.0993	884.4799	-0.0592	0.0182	-0.0073	-0.0462	0.0165	0.9585
35.706	-1.1384	-6.2032	-0.56063	2.3197	0.050752	-5.141	-41.9453	784.0844	-79.1951	265.0044	103.7865	870.539	-0.0592	0.0182	-0.0073	-0.0462	0.0165	0.9585
35.7176	-0.53503	-4.5599	-0.57686	1.7134	0.31258	-3.6688	-39.2142	772.7054	-77.9227	259.6477	100.9372	854.4981	-0.0592	0.0182	-0.0073	-0.0462	0.0165	0.9585
35.7291	-0.089288	-2.7637	-0.48545	1.0499	0.40809	-2.0616	-36.6005	760.3232	-76.3116	254.0905	97.7757	837.448	-0.0592	0.0182	-0.0073	-0.0462	0.0165	0.9585
